<svg xmlns="http://www.w3.org/2000/svg" viewBox="0 0 3835 1269" fill-rule="evenodd" clip-rule="evenodd" stroke-linejoin="round" stroke-miterlimit="2"><path d="M298.618 324.351c-43.82 0-77.358 33.542-77.358 77.63 0 44.091 33.808 77.362 77.358 77.362 43.55 0 77.359-33.27 77.359-77.363 0-44.087-33.538-77.629-77.359-77.629m0 18.125c33.271 0 57.346 25.967 57.346 59.504 0 33.542-24.075 59.242-57.346 59.242-33.27 0-57.341-25.7-57.341-59.242 0-33.537 24.07-59.504 57.341-59.504m114.959 133.35h20.017V345.99h36.783v-18.121h-36.783v-2.975c0-30.567 26.779-31.104 32.729-31.104h4.054v-18.125h-4.054c-33.271 0-52.746 20.287-52.746 49.229v2.975h-22.992v18.12h22.992v129.838zm84.933 0h20.017V345.99h36.783v-18.121h-36.783v-2.975c0-30.567 26.78-31.104 32.73-31.104h4.053v-18.125h-4.054c-33.27 0-52.746 20.287-52.746 49.229v2.975h-22.99v18.12h22.991v129.838zm75.467 0h20.017V327.872h-20.017v147.954zm0-166.079h20.017v-34.083h-20.017v34.083zm177.167 122.8c-10.546 18.663-29.483 28.675-49.767 28.675-32.187 0-58.967-25.97-58.967-59.783 0-32.73 24.613-58.963 58.967-58.963 6.763 0 34.892 1.08 49.767 30.292h22.454c-11.633-29.213-37.87-48.417-72.22-48.417-51.663 0-78.984 41.93-78.984 77.359 0 38.683 28.4 77.633 78.983 77.633 40.571 0 61.942-24.888 71.95-46.796h-22.183zm199.35-23.533c.27-38.138-20.017-84.663-76.008-84.663-50.309 0-77.084 41.117-77.084 77.63 0 44.358 33.538 77.362 77.084 77.362 33.541 0 60.591-19.75 72.491-51.667h-20.825c-9.2 20.288-28.4 33.546-51.666 33.546-31.105 0-53.825-22.725-56.259-52.208h132.267zm-132.267-18.121c4.871-28.133 27.859-48.417 56.259-48.417 25.695 0 48.691 18.392 54.37 48.417H818.228z" fill-rule="nonzero"/><path d="M918.048 576.21C879.202 778.206 708.285 930.998 493.34 930.998c-246.02 0-445.429-199.405-445.429-445.426 0-246.02 199.408-445.43 445.43-445.43 151.495 0 279.687 76.397 354.787 192.934h53.088C819.64 94.526 670.735 1.296 493.339 1.296 221.423 1.297.002 218.83.002 485.573c0 266.734 221.42 484.267 493.337 484.267 253.788 0 449.31-190.337 473.913-432.475H348.32v38.846h569.73zm607.28-537.359c246.02 0 428.592 200.7 428.592 446.721 0 246.021-182.571 445.426-428.592 445.426-246.017 0-445.426-199.405-445.426-445.426 0-246.02 199.409-446.721 445.426-446.721m0 930.988c271.917 0 476.504-217.533 476.504-484.267 0-266.742-204.587-485.567-476.504-485.567-271.917 0-493.334 218.825-493.334 485.567 0 266.734 221.417 484.267 493.334 484.267m1034.58-930.988c246.017 0 428.592 200.7 428.592 446.721 0 246.021-182.575 445.426-428.592 445.426-246.021 0-445.426-199.405-445.426-445.426 0-246.02 199.405-446.721 445.426-446.721m0 930.988c271.913 0 476.5-217.533 476.5-484.267 0-266.742-204.587-485.567-476.5-485.567-271.917 0-493.334 218.825-493.334 485.567 0 266.734 221.417 484.267 493.334 484.267m586.563-19.42h257.675c238.25 0 429.884-208.472 429.884-466.143 0-256.379-192.93-464.85-429.884-464.85h-257.675v930.992zm44.02-892.147h195.526c221.42 0 400.104 189.046 400.104 426.004 0 236.955-178.683 427.297-400.104 427.297h-195.525V58.272zM2079.266 1192.194l-2.55 11.912c-24.017 8.183-44.725 12.296-62.121 12.296-13.017 0-23.138-2.817-30.375-8.492-7.267-5.629-10.883-13.316-10.883-22.983 0-21.317 20.437-43.663 61.316-67.03-6.62-10.695-9.933-17.854-9.933-21.433 0-9.816 8.45-19.904 25.387-30.333 15.305-9.442 30.984-14.158 47.009-14.158 12.637 0 18.958 4.45 18.958 13.4 0 5.437-5.558 16.82-16.712 34.137l-5.48-7.8c8.867-12.754 13.28-21.658 13.28-26.72 0-6.092-4.109-9.138-12.367-9.138-8.492 0-17.7 2.512-27.633 7.579-22.955 11.68-34.446 23.708-34.446 36.12 0 4.3 1.216 8.867 3.654 13.663 2.433 4.796 3.654 7.459 3.654 7.955 0 3.27-2.933 6.929-8.792 10.962-7.237 4.87-14.429 9.783-21.625 14.692-20.208 15.604-30.333 29.916-30.333 42.937 0 6.696 2.55 11.988 7.692 15.946 5.133 3.92 12.366 5.9 21.729 5.9 22.004 0 45.525-6.47 70.57-19.412m23.488 3.233l-18.196 19.833-7.575.459 25.084-22.88-5.675-25.083 8.225-.683 3.35 18.537 13.929-17.854 6.7-.683-19.833 21.204 6.133 27.442h-7.804l-4.338-20.292zm67.713 3.12v3.01c-11.192 9.9-20.367 14.845-27.404 14.845-3.888 0-7.005-1.254-9.442-3.733-2.4-2.509-3.617-5.746-3.617-9.78 0-7.575 3.996-15.833 11.913-24.666 7.387-8.18 15.875-12.292 25.541-12.292 5.821 0 8.717 1.254 8.717 3.804 0 1.525-.683 3.05-2.02 4.609-6.163-3.159-10.655-4.759-13.472-4.759-3.808 0-7.383 2.092-10.733 6.242-6.887 8.375-10.354 16.975-10.354 25.73 0 6.24 3.046 9.362 9.137 9.362 5.592 0 12.825-4.109 21.734-12.371m50.579-.909l.463 3.042c-10.771 10.775-20.025 16.18-27.675 16.18-8.338 0-12.484-4.192-12.484-12.526 0-7.65 3.654-15.833 10.925-24.554 7.571-8.942 15.034-13.392 22.38-13.392 5.52 0 8.262 2.7 8.262 8.146 0 4.984-2.742 10.121-8.263 15.413-5.862 5.82-13.933 10.696-24.17 14.658v.87c0 4.684 2.437 7.043 7.233 7.043 5.442 0 13.208-4.95 23.329-14.88m-30.562 3.917c8.337-3.73 15.037-8.22 20.025-13.47 4.45-4.834 6.695-9.405 6.695-13.705 0-3.196-1.52-4.796-4.566-4.796-3.804 0-7.73 2.738-11.759 8.259-4.458 5.937-7.92 13.816-10.395 23.712m68.02-46.4c13.471-19.942 23.863-38.096 31.171-54.542 6.321-14.5 9.475-25.696 9.475-33.57 0-3.655-.604-5.484-1.783-5.484-3.808 0-9.058 7.804-15.758 23.446-7.346 17.092-15.075 40.463-23.105 70.15m-23.525 29.004l10.696-12.937c9.367-36.467 18.954-65.205 28.775-86.138 9.096-19.183 16.788-28.775 23.109-28.775 3.191 0 4.791 3.617 4.791 10.808 0 9.746-3.691 22.538-11.033 38.334-8.033 17.546-19.642 36.654-34.904 57.317-6.967 25.925-10.471 40.804-10.471 44.687 0 1.867 1.296 2.78 3.883 2.78 2.967 0 8.296-4.188 15.95-12.597l1.1 3.234c-9.554 10.504-16.896 15.754-22.037 15.754-4.754 0-7.117-2.433-7.117-7.267 0-5.175 2.208-15.646 6.625-31.325l-8.492 9.367-.875-3.242zm65.771-29.004c13.48-19.942 23.871-38.096 31.18-54.542 6.316-14.5 9.474-25.696 9.474-33.57 0-3.655-.608-5.484-1.791-5.484-3.804 0-9.054 7.804-15.754 23.446-7.35 17.092-15.075 40.463-23.109 70.15m-23.516 29.004l10.691-12.937c9.363-36.467 18.959-65.205 28.775-86.138 9.1-19.183 16.788-28.775 23.104-28.775 3.2 0 4.8 3.617 4.8 10.808 0 9.746-3.695 22.538-11.041 38.334-8.03 17.546-19.642 36.654-34.904 57.317-6.967 25.925-10.467 40.804-10.467 44.687 0 1.867 1.296 2.78 3.883 2.78 2.967 0 8.296-4.188 15.946-12.597l1.104 3.234c-9.55 10.504-16.9 15.754-22.033 15.754-4.763 0-7.12-2.433-7.12-7.267 0-5.175 2.207-15.646 6.624-31.325l-8.487 9.367-.875-3.242zm78.062 13.48l.458 3.041c-10.775 10.775-20.02 16.18-27.67 16.18-8.338 0-12.484-4.192-12.484-12.526 0-7.65 3.654-15.833 10.921-24.554 7.575-8.942 15.033-13.392 22.383-13.392 5.517 0 8.259 2.7 8.259 8.146 0 4.984-2.742 10.121-8.259 15.413-5.862 5.82-13.933 10.696-24.17 14.658v.87c0 4.684 2.433 7.043 7.229 7.043 5.446 0 13.208-4.95 23.333-14.88m-30.562 3.917c8.333-3.73 15.037-8.22 20.02-13.47 4.455-4.834 6.696-9.405 6.696-13.705 0-3.196-1.52-4.796-4.562-4.796-3.813 0-7.73 2.738-11.763 8.259-4.454 5.937-7.916 13.816-10.391 23.712m45.904 14.617h-7.575c5.937-18.271 10.312-33.796 13.054-46.588l10.467-4.341c-.15.875-3.996 13.933-11.609 39.091 15.417-25.616 26.684-38.404 33.838-38.404 4.987 0 7.462 2.854 7.462 8.604 0 3.954-1.637 9.817-4.912 17.584-3.271 7.766-4.913 13.054-4.913 15.791 0 2.175 1.067 3.238 3.238 3.238 2.892 0 7.917-4.338 15.037-13.054l1.675 2.358c-9.366 10.925-16.404 16.408-21.087 16.408-4.95 0-7.463-2.475-7.463-7.462 0-1.409 1.905-7.08 5.671-16.975 3.925-10.238 5.9-16.48 5.9-18.725 0-2.742-1.291-4.113-3.879-4.113-2.246 0-6.32 3.842-12.258 11.496-6.775 8.68-14.309 20.363-22.646 35.092m92.187-17.625l1.905 2.325c-10.963 10.2-18.996 15.3-24.209 15.3-5.52 0-8.258-2.738-8.258-8.263 0-2.358 1.6-8.75 4.792-19.179l9.137-29.65h-6.7l1.675-4.112h5.938l10.466-34.675 10.05-2.78-11.154 37.455h15.988l-1.33 4.112h-16.441l-10.05 34.675c-1.984 6.813-3.009 11.417-3.009 13.7 0 2.17 1.067 3.233 3.234 3.233 3.27 0 9.25-4.029 17.966-12.141m51.5-5.9l-1.637-1.596 19.604-21.317c1.18-8.183 4.221-12.254 9.133-12.254 2.625 0 3.917 1.217 3.917 3.692 0 1.408-1.367 3.312-4.108 5.75-2.738 2.396-4.109 3.841-4.109 4.3 0 0 1.292 2.737 3.88 8.258 2.587 5.483 3.883 10.658 3.883 15.492 0 5.937-2.283 11-6.854 15.187-4.563 4.15-10.121 6.242-16.667 6.242-3.996 0-7.387-.763-10.087-2.283-2.705-1.525-4.075-3.2-4.075-4.988 0-2.437 1.22-3.692 3.691-3.692 1.717 0 4.192 1.18 7.425 3.538 3.2 2.362 5.746 3.542 7.613 3.542 3.12 0 5.783-1.409 7.916-4.188 2.171-2.78 3.234-6.354 3.234-10.658 0-2.738-1.671-10.846-5.021-24.204l-17.738 19.179zm80.5 4.991l.459 3.042c-10.771 10.775-20.021 16.18-27.671 16.18-8.338 0-12.488-4.192-12.488-12.526 0-7.65 3.655-15.833 10.925-24.554 7.575-8.942 15.038-13.392 22.38-13.392 5.52 0 8.262 2.7 8.262 8.146 0 4.984-2.741 10.121-8.262 15.413-5.859 5.82-13.93 10.696-24.171 14.658v.87c0 4.684 2.437 7.043 7.237 7.043 5.438 0 13.209-4.95 23.33-14.88m-30.567 3.917c8.337-3.73 15.037-8.22 20.025-13.47 4.45-4.834 6.7-9.405 6.7-13.705 0-3.196-1.525-4.796-4.571-4.796-3.804 0-7.725 2.738-11.758 8.259-4.455 5.937-7.921 13.816-10.396 23.712m48.342 14.163h-6.813l9.592-46.209 8.679-2.666-6.663 34.029c10.888-22.684 19.146-34.03 24.705-34.03 3.35 0 5.025 2.517 5.025 7.5 0 1.1-.417 4.221-1.221 9.363l-7.875 5.708c.87-6.85 1.329-10.925 1.329-12.254 0-2.17-.533-3.237-1.558-3.237-3.275 0-11.688 13.933-25.2 41.796m51.195-47.467l9.555-2.55c-6.471 21.7-9.746 35.433-9.746 41.15 0 4.067 1.45 6.125 4.379 6.125 2.892 0 6.887-3.73 11.992-11.15 5.82-8.717 11.15-20.063 15.983-34.071l7.842-.458c-6.813 15.646-14.042 28.016-21.621 37.15-6.625 8.112-12.104 12.179-16.521 12.179-5.933 0-8.9-4.146-8.9-12.483 0-8.259 2.354-20.209 7.037-35.892m64.171-26.375c0-3.767 1.83-5.638 5.525-5.638 3.309 0 4.984 1.755 4.984 5.217 0 3.846-1.905 5.75-5.746 5.75-3.163 0-4.763-1.796-4.763-5.33m-8.6 25.955l10.509-2.13c-7.809 22.384-11.725 35.934-11.725 40.613 0 1.867 1.104 2.784 3.233 2.784 1.942 0 6.662-4.117 14.162-12.334l1.559 2.246c-10.313 11.759-17.85 17.617-22.53 17.617-3.695 0-5.558-2.47-5.558-7.458 0-2.017 1.067-6.775 3.234-14.275 3.12-11.3 5.516-20.321 7.116-27.063m63.454 30.717v3.008c-11.191 9.9-20.366 14.846-27.412 14.846-3.88 0-7-1.254-9.433-3.733-2.4-2.509-3.617-5.746-3.617-9.78 0-7.575 4-15.833 11.912-24.666 7.384-8.18 15.875-12.292 25.542-12.292 5.821 0 8.717 1.254 8.717 3.804 0 1.525-.688 3.05-2.021 4.609-6.163-3.159-10.654-4.759-13.47-4.759-3.81 0-7.388 2.092-10.734 6.242-6.896 8.375-10.359 16.975-10.359 25.73 0 6.24 3.05 9.362 9.142 9.362 5.592 0 12.825-4.109 21.733-12.371m50.58-.909l.462 3.042c-10.77 10.775-20.025 16.18-27.675 16.18-8.333 0-12.483-4.192-12.483-12.526 0-7.65 3.654-15.833 10.925-24.554 7.57-8.942 15.033-13.392 22.379-13.392 5.517 0 8.258 2.7 8.258 8.146 0 4.984-2.741 10.121-8.258 15.413-5.862 5.82-13.93 10.696-24.17 14.658v.87c0 4.684 2.437 7.043 7.233 7.043 5.441 0 13.204-4.95 23.329-14.88m-30.563 3.917c8.338-3.73 15.038-8.22 20.025-13.47 4.45-4.834 6.696-9.405 6.696-13.705 0-3.196-1.525-4.796-4.567-4.796-3.804 0-7.729 2.738-11.762 8.259-4.454 5.937-7.917 13.816-10.392 23.712m107.338-35.854c8.183-8.867 16.179-21.392 23.979-37.604 6.625-13.704 11.762-26.913 15.417-39.663 2.816-9.82 4.225-16.937 4.225-21.429 0-3.92-.875-5.9-2.667-5.9-6.775 0-20.438 34.862-40.954 104.596m-21.163 23.6c5.404-4.758 8.53-8.338 9.363-10.738 1.904-7.495 7.766-27.133 17.47-58.958 6.321-19.488 12.905-35.092 19.759-46.775 6.242-10.7 11.417-16.063 15.487-16.063 4.225 0 6.359 3.271 6.359 9.817 0 12.642-4.571 29.575-13.704 50.854-9.671 22.605-21.467 40.955-35.363 55.075l-3.88 13.288c4.988-.463 12.026-3.696 21.163-9.783l.8 2.662c-4.07 3.846-11.8 7.613-23.104 11.23-8.983 31.478-16.825 56.295-23.52 74.412l-12.146 3.92c7.154-16.52 16.141-42.441 26.987-77.72l-5.67-1.221zm68.471-21.088c-4.45 0-9.17 3.58-14.154 10.696-5.788 8.413-8.68 17.167-8.68 26.3 0 6.246 2.817 9.363 8.45 9.363 5.367 0 10.505-4.109 15.417-12.33 4.946-8.187 7.421-16.633 7.421-25.35 0-5.787-2.816-8.679-8.454-8.679m-30.596 31.592c0-9.058 3.121-17.054 9.4-23.98 6.28-6.887 13.321-10.353 21.125-10.353 10.692 0 16.059 5.941 16.059 17.85 0 9.133-3.08 17.096-9.213 23.829-6.125 6.78-13.55 10.162-22.342 10.162-4.375 0-7.991-1.595-10.808-4.795-2.812-3.196-4.22-7.421-4.22-12.713m61.353 15.913h-6.812l9.592-46.209 8.675-2.666-6.659 34.029c10.888-22.684 19.146-34.03 24.7-34.03 3.355 0 5.025 2.517 5.025 7.5 0 1.1-.412 4.221-1.216 9.363l-7.88 5.708c.88-6.85 1.334-10.925 1.334-12.254 0-2.17-.533-3.237-1.558-3.237-3.275 0-11.688 13.933-25.2 41.796m92.608-48l9.133-1.559c-7.158 22.267-10.733 35.7-10.733 40.421 0 3.463 1.142 5.213 3.462 5.213 6.855 0 17.588-15.03 32.28-45.18h8.141l-11.837 42.975 11.154-11.041 2.133 2.096-14.125 13.512c-9.625 36.35-20.096 54.542-31.4 54.542-4.754 0-7.116-2.434-7.116-7.23 0-9.816 9.4-23.408 28.166-40.724l11.417-41.375c-13.092 24.395-23.596 36.575-31.55 36.575-5.367 0-8.033-3.275-8.033-9.817 0-4.833 2.97-17.625 8.908-38.408m18.533 57.587c-16.025 14.846-24.016 26.458-24.016 34.867 0 3.846 1.216 5.787 3.654 5.787 7.233 0 14.008-13.554 20.362-40.654m65.963-57.092c-4.45 0-9.171 3.58-14.154 10.696-5.788 8.413-8.68 17.167-8.68 26.3 0 6.246 2.813 9.363 8.45 9.363 5.363 0 10.505-4.109 15.413-12.33 4.95-8.187 7.42-16.633 7.42-25.35 0-5.787-2.812-8.679-8.45-8.679m-30.6 31.592c0-9.058 3.122-17.054 9.4-23.98 6.284-6.887 13.326-10.353 21.13-10.353 10.692 0 16.058 5.941 16.058 17.85 0 9.133-3.079 17.096-9.208 23.829-6.133 6.78-13.554 10.162-22.346 10.162-4.375 0-7.992-1.595-10.808-4.795-2.817-3.196-4.225-7.421-4.225-12.713m66.762-31.783l8.567-2.55c-7.004 24.666-10.508 39.133-10.508 43.47 0 1.634 1.066 2.434 3.233 2.434 5.787 0 16.217-14.692 31.25-44.08l9.825-.453c-7.158 23.866-10.733 37.112-10.733 39.7 0 2.17 1.137 3.237 3.462 3.237 2.246 0 6.813-3.808 13.742-11.458l1.558 2.779c-8.946 10.046-15.758 15.07-20.516 15.07-4.605 0-6.925-2.587-6.925-7.8 0-4.378 2.508-14.808 7.57-31.25-7.65 13.855-13.741 23.638-18.27 29.347-5.217 6.47-9.93 9.704-14.159 9.704-5.517 0-8.258-3.196-8.258-9.592 0-4.15 3.387-17.012 10.162-38.558m61.738 47.696h-6.813l9.592-46.209 8.675-2.666-6.658 34.029c10.887-22.684 19.146-34.03 24.7-34.03 3.35 0 5.025 2.517 5.025 7.5 0 1.1-.417 4.221-1.217 9.363l-7.88 5.708c.88-6.85 1.334-10.925 1.334-12.254 0-2.17-.533-3.237-1.562-3.237-3.271 0-11.688 13.933-25.196 41.796m120.467-140.721l10.7-2.246-35.096 111.183c9.1-12.296 17.316-18.462 24.587-18.462 7.8 0 11.688 4.491 11.688 13.475 0 9.67-4.721 18.42-14.159 26.304-8.758 7.267-17.666 10.92-26.725 10.92-5.933 0-8.904-2.737-8.904-8.262 0-2.125 2.663-12.329 8.03-30.562l29.879-102.35zm-2.438 94.816c-4.679 0-10.083 3.767-16.212 11.267-8.259 10.2-12.409 19.146-12.409 26.87 0 3.505 1.83 5.255 5.446 5.255 4.871 0 10.467-3.425 16.742-10.28 8.183-8.828 12.3-17.357 12.3-25.54 0-5.063-1.942-7.572-5.867-7.572m34.488-1.791l8.562-2.55c-7 24.666-10.504 39.133-10.504 43.47 0 1.634 1.067 2.434 3.233 2.434 5.788 0 16.217-14.692 31.25-44.08l9.825-.453c-7.158 23.866-10.733 37.112-10.733 39.7 0 2.17 1.138 3.237 3.463 3.237 2.245 0 6.808-3.808 13.737-11.458l1.563 2.779c-8.946 10.046-15.759 15.07-20.517 15.07-4.604 0-6.925-2.587-6.925-7.8 0-4.378 2.508-14.808 7.575-31.25-7.65 13.855-13.742 23.638-18.271 29.347-5.217 6.47-9.938 9.704-14.158 9.704-5.521 0-8.263-3.196-8.263-9.592 0-4.15 3.388-17.012 10.163-38.558m58.162 24.625l-1.641-1.596 19.604-21.317c1.179-8.183 4.225-12.254 9.137-12.254 2.625 0 3.917 1.217 3.917 3.692 0 1.408-1.367 3.312-4.108 5.75-2.742 2.396-4.113 3.841-4.113 4.3 0 0 1.296 2.737 3.883 8.258 2.588 5.483 3.884 10.658 3.884 15.492 0 5.937-2.284 11-6.854 15.187-4.567 4.15-10.121 6.242-16.671 6.242-3.996 0-7.384-.763-10.088-2.283-2.7-1.525-4.066-3.2-4.066-4.988 0-2.437 1.216-3.692 3.691-3.692 1.713 0 4.184 1.18 7.421 3.538 3.196 2.362 5.746 3.542 7.613 3.542 3.12 0 5.783-1.409 7.912-4.188 2.175-2.78 3.238-6.354 3.238-10.658 0-2.738-1.675-10.846-5.021-24.204l-17.738 19.179zm62.95-50.771c0-3.767 1.834-5.638 5.521-5.638 3.313 0 4.988 1.755 4.988 5.217 0 3.846-1.9 5.75-5.746 5.75-3.159 0-4.763-1.796-4.763-5.33m-8.596 25.955l10.5-2.13c-7.8 22.384-11.72 35.934-11.72 40.613 0 1.867 1.1 2.784 3.233 2.784 1.942 0 6.662-4.117 14.162-12.334l1.559 2.246c-10.313 11.759-17.854 17.617-22.534 17.617-3.687 0-5.558-2.47-5.558-7.458 0-2.017 1.067-6.775 3.238-14.275 3.12-11.3 5.516-20.321 7.12-27.063m29.88 48.342h-7.58c5.938-18.271 10.317-33.796 13.059-46.588l10.466-4.341c-.154.875-3.995 13.933-11.608 39.091 15.413-25.616 26.68-38.404 33.838-38.404 4.987 0 7.462 2.854 7.462 8.604 0 3.954-1.642 9.817-4.912 17.584-3.275 7.766-4.913 13.054-4.913 15.791 0 2.175 1.067 3.238 3.238 3.238 2.891 0 7.916-4.338 15.033-13.054l1.675 2.358c-9.363 10.925-16.404 16.408-21.088 16.408-4.945 0-7.458-2.475-7.458-7.462 0-1.409 1.904-7.08 5.671-16.975 3.92-10.238 5.9-16.48 5.9-18.725 0-2.742-1.292-4.113-3.88-4.113-2.25 0-6.32 3.842-12.262 11.496-6.775 8.68-14.308 20.363-22.641 35.092m100.404-18.534l.462 3.042c-10.775 10.775-20.025 16.18-27.675 16.18-8.337 0-12.483-4.192-12.483-12.526 0-7.65 3.654-15.833 10.92-24.554 7.576-8.942 15.034-13.392 22.384-13.392 5.521 0 8.259 2.7 8.259 8.146 0 4.984-2.738 10.121-8.259 15.413-5.862 5.82-13.933 10.696-24.17 14.658v.87c0 4.684 2.437 7.043 7.233 7.043 5.441 0 13.208-4.95 23.329-14.88m-30.563 3.917c8.334-3.73 15.038-8.22 20.021-13.47 4.454-4.834 6.7-9.405 6.7-13.705 0-3.196-1.52-4.796-4.566-4.796-3.805 0-7.73 2.738-11.763 8.259-4.454 5.937-7.917 13.816-10.392 23.712m44.759-8.908l-1.634-1.596 19.6-21.317c1.184-8.183 4.23-12.254 9.138-12.254 2.625 0 3.92 1.217 3.92 3.692 0 1.408-1.37 3.312-4.112 5.75-2.741 2.396-4.108 3.841-4.108 4.3 0 0 1.296 2.737 3.883 8.258 2.588 5.483 3.88 10.658 3.88 15.492 0 5.937-2.28 11-6.85 15.187-4.567 4.15-10.126 6.242-16.671 6.242-3.996 0-7.388-.763-10.088-2.283-2.7-1.525-4.075-3.2-4.075-4.988 0-2.437 1.22-3.692 3.692-3.692 1.716 0 4.187 1.18 7.425 3.538 3.2 2.362 5.746 3.542 7.612 3.542 3.121 0 5.784-1.409 7.917-4.188 2.17-2.78 3.233-6.354 3.233-10.658 0-2.738-1.67-10.846-5.02-24.204l-17.742 19.179zm44.958 0l-1.637-1.596 19.6-21.317c1.179-8.183 4.229-12.254 9.133-12.254 2.625 0 3.92 1.217 3.92 3.692 0 1.408-1.366 3.312-4.108 5.75-2.741 2.396-4.112 3.841-4.112 4.3 0 0 1.296 2.737 3.883 8.258 2.588 5.483 3.88 10.658 3.88 15.492 0 5.937-2.28 11-6.85 15.187-4.567 4.15-10.126 6.242-16.671 6.242-3.996 0-7.38-.763-10.088-2.283-2.7-1.525-4.067-3.2-4.067-4.988 0-2.437 1.217-3.692 3.688-3.692 1.712 0 4.187 1.18 7.425 3.538 3.196 2.362 5.746 3.542 7.612 3.542 3.121 0 5.784-1.409 7.917-4.188 2.17-2.78 3.233-6.354 3.233-10.658 0-2.738-1.675-10.846-5.025-24.204l-17.733 19.179z" fill-rule="nonzero"/></svg>