<svg xmlns="http://www.w3.org/2000/svg" width="300" height="300" fill="none"><path d="M23.337 125.757c-3.428 0-6.052 2.624-6.052 6.073 0 3.449 2.645 6.051 6.052 6.051 3.406 0 6.051-2.602 6.051-6.051 0-3.449-2.623-6.073-6.051-6.073zm0 1.418c2.602 0 4.486 2.031 4.486 4.655 0 2.623-1.884 4.634-4.486 4.634-2.603 0-4.486-2.011-4.486-4.634 0-2.624 1.883-4.655 4.486-4.655zm8.993 10.431h1.565V127.45h2.878v-1.418h-2.878v-.233c0-2.391 2.095-2.433 2.56-2.433h.318v-1.418h-.317c-2.603 0-4.127 1.587-4.127 3.851v.233h-1.798v1.418h1.799v10.156zm6.644 0h1.565V127.45h2.878v-1.418h-2.878v-.233c0-2.391 2.095-2.433 2.56-2.433h.318v-1.418H43.1c-2.603 0-4.126 1.587-4.126 3.851v.233h-1.799v1.418h1.799v10.156zm5.903 0h1.566v-11.574h-1.566v11.574zm0-12.992h1.566v-2.666h-1.566v2.666zm13.86 9.607c-.826 1.46-2.307 2.243-3.894 2.243-2.518 0-4.613-2.032-4.613-4.677 0-2.56 1.926-4.612 4.613-4.612.53 0 2.73.084 3.893 2.369h1.757c-.91-2.285-2.963-3.787-5.65-3.787-4.041 0-6.178 3.28-6.178 6.051 0 3.027 2.221 6.073 6.178 6.073 3.174 0 4.846-1.946 5.629-3.66h-1.736zm15.594-1.841c.021-2.984-1.566-6.623-5.946-6.623-3.936 0-6.03 3.216-6.03 6.073 0 3.47 2.623 6.051 6.03 6.051 2.624 0 4.74-1.545 5.67-4.041h-1.628c-.72 1.587-2.222 2.624-4.042 2.624-2.433 0-4.21-1.778-4.401-4.084h10.347zm-10.347-1.418c.381-2.201 2.18-3.787 4.4-3.787 2.011 0 3.81 1.439 4.254 3.787h-8.654z" fill="#fff"/><path d="M71.816 145.453c-3.039 15.802-16.41 27.754-33.224 27.754-19.245 0-34.844-15.599-34.844-34.844 0-19.246 15.599-34.845 34.844-34.845 11.851 0 21.88 5.976 27.754 15.093H70.5c-6.381-10.839-18.03-18.132-31.907-18.132C17.322 100.479 0 117.496 0 138.363c0 20.866 17.321 37.883 38.592 37.883 19.853 0 35.148-14.89 37.073-33.832H27.248v3.039h44.568zm47.505-42.036c19.246 0 33.528 15.7 33.528 34.946 0 19.245-14.282 34.844-33.528 34.844-19.245 0-34.844-15.599-34.844-34.844 0-19.246 15.599-34.946 34.844-34.946zm0 72.829c21.272 0 37.276-17.017 37.276-37.883 0-20.867-16.004-37.985-37.276-37.985-21.27 0-38.591 17.118-38.591 37.985 0 20.866 17.32 37.883 38.591 37.883zm80.932-72.829c19.246 0 33.528 15.7 33.528 34.946 0 19.245-14.282 34.844-33.528 34.844-19.245 0-34.844-15.599-34.844-34.844 0-19.246 15.599-34.946 34.844-34.946zm0 72.829c21.271 0 37.276-17.017 37.276-37.883 0-20.867-16.005-37.985-37.276-37.985-21.271 0-38.592 17.118-38.592 37.985 0 20.866 17.321 37.883 38.592 37.883zm45.885-1.52h20.158c18.637 0 33.628-16.308 33.628-36.465 0-20.055-15.092-36.363-33.628-36.363h-20.158v72.828zm3.444-69.79h15.295c17.321 0 31.299 14.789 31.299 33.325 0 18.537-13.978 33.426-31.299 33.426h-15.295v-66.751zm-86.901 88.699l-.199.932c-1.879.64-3.499.962-4.86.962-1.018 0-1.81-.221-2.376-.664-.569-.441-.851-1.042-.851-1.798 0-1.668 1.598-3.416 4.796-5.244-.518-.837-.777-1.397-.777-1.677 0-.767.661-1.557 1.986-2.372 1.197-.739 2.424-1.108 3.677-1.108.989 0 1.483.348 1.483 1.048 0 .426-.434 1.316-1.307 2.671l-.429-.61c.694-.998 1.039-1.695 1.039-2.091 0-.476-.321-.715-.967-.715-.664 0-1.385.197-2.162.593-1.795.914-2.694 1.855-2.694 2.826 0 .336.095.694.285 1.069.191.375.286.583.286.622 0 .256-.229.542-.687.858-.567.381-1.129.765-1.692 1.149-1.581 1.22-2.373 2.34-2.373 3.359 0 .523.199.937.602 1.247.401.307.967.462 1.7.462 1.721 0 3.561-.507 5.52-1.519zm1.837.253l-1.423 1.551-.593.036 1.963-1.789-.444-1.963.643-.053.262 1.45 1.09-1.397.524-.053-1.552 1.659.48 2.146h-.61l-.34-1.587zm5.297.244v.235c-.875.775-1.593 1.162-2.143 1.162a.987.987 0 01-.739-.292c-.188-.196-.283-.45-.283-.765 0-.593.313-1.239.932-1.93.578-.64 1.242-.961 1.998-.961.455 0 .682.098.682.297 0 .12-.054.239-.158.361-.482-.247-.834-.373-1.054-.373-.298 0-.578.164-.84.489-.538.655-.81 1.328-.81 2.012 0 .489.239.733.715.733.438 0 1.003-.322 1.7-.968zm3.957-.071l.036.238c-.842.843-1.566 1.266-2.165 1.266-.652 0-.976-.328-.976-.98 0-.599.286-1.239.854-1.921.593-.699 1.176-1.048 1.751-1.048.432 0 .646.212.646.638 0 .39-.214.791-.646 1.205-.459.456-1.09.837-1.891 1.147v.068c0 .367.191.551.566.551.426 0 1.033-.387 1.825-1.164zm-2.391.306c.652-.291 1.177-.643 1.567-1.053.348-.378.523-.736.523-1.072 0-.25-.118-.376-.357-.376-.297 0-.604.215-.92.646-.348.465-.619 1.081-.813 1.855zm5.321-3.629c1.054-1.56 1.867-2.98 2.439-4.267.494-1.134.741-2.01.741-2.626 0-.286-.047-.429-.14-.429-.298 0-.708.611-1.232 1.834-.575 1.337-1.18 3.165-1.808 5.488zm-1.84 2.269l.837-1.012c.732-2.853 1.482-5.101 2.251-6.739.711-1.5 1.313-2.251 1.807-2.251.25 0 .375.283.375.846 0 .762-.289 1.763-.863 2.999-.628 1.372-1.536 2.867-2.73 4.483-.545 2.028-.819 3.192-.819 3.496 0 .146.101.217.303.217.232 0 .649-.327 1.248-.985l.086.253c-.747.822-1.322 1.232-1.724 1.232-.372 0-.557-.19-.557-.568 0-.405.173-1.224.519-2.451l-.665.733-.068-.253zm5.145-2.269c1.054-1.56 1.867-2.98 2.439-4.267.494-1.134.741-2.01.741-2.626 0-.286-.047-.429-.14-.429-.297 0-.708.611-1.232 1.834-.575 1.337-1.18 3.165-1.808 5.488zm-1.84 2.269l.837-1.012c.732-2.853 1.483-5.101 2.251-6.739.712-1.5 1.313-2.251 1.807-2.251.25 0 .376.283.376.846 0 .762-.29 1.763-.864 2.999-.628 1.372-1.537 2.867-2.731 4.483-.545 2.028-.818 3.192-.818 3.496 0 .146.101.217.303.217.232 0 .649-.327 1.248-.985l.086.253c-.747.822-1.322 1.232-1.723 1.232-.373 0-.557-.19-.557-.568 0-.405.172-1.224.518-2.451l-.664.733-.069-.253zm6.107 1.054l.036.238c-.843.843-1.566 1.266-2.165 1.266-.652 0-.976-.328-.976-.98 0-.599.286-1.239.854-1.921.593-.699 1.176-1.048 1.751-1.048.432 0 .646.212.646.638 0 .39-.214.791-.646 1.205-.459.456-1.09.837-1.891 1.147v.068c0 .367.19.551.566.551.426 0 1.033-.387 1.825-1.164zm-2.391.306c.652-.291 1.176-.643 1.566-1.053.349-.378.524-.736.524-1.072 0-.25-.119-.376-.357-.376-.298 0-.604.215-.92.646-.348.465-.619 1.081-.813 1.855zm3.591 1.144h-.592c.464-1.429.806-2.644 1.021-3.645l.818-.339c-.011.068-.312 1.09-.908 3.058 1.206-2.004 2.088-3.004 2.647-3.004.391 0 .584.223.584.673 0 .309-.128.768-.384 1.375-.256.608-.384 1.021-.384 1.236 0 .17.083.253.253.253.226 0 .619-.34 1.176-1.021l.131.184c-.733.855-1.283 1.284-1.649 1.284-.388 0-.584-.194-.584-.584 0-.11.149-.554.443-1.328.307-.801.462-1.289.462-1.465 0-.214-.101-.322-.303-.322-.176 0-.495.301-.959.9-.53.679-1.12 1.593-1.772 2.745zm7.212-1.379l.149.182c-.858.798-1.486 1.197-1.894 1.197-.432 0-.646-.214-.646-.646 0-.185.125-.685.375-1.501l.714-2.319h-.524l.131-.322h.465l.819-2.712.786-.218-.873 2.93h1.251l-.104.322h-1.286l-.786 2.712c-.156.533-.236.893-.236 1.072 0 .17.084.253.253.253.256 0 .724-.315 1.406-.95zm4.028-.461l-.128-.125 1.534-1.668c.092-.64.33-.958.714-.958.206 0 .307.095.307.288 0 .111-.107.26-.322.45-.214.188-.321.301-.321.337l.303.646c.203.429.304.833.304 1.211 0 .465-.178.861-.536 1.189a1.873 1.873 0 01-1.304.488c-.312 0-.578-.06-.789-.179-.211-.119-.319-.25-.319-.39 0-.191.096-.289.289-.289.134 0 .328.092.581.277.25.185.449.277.595.277.245 0 .453-.11.62-.328.17-.217.253-.497.253-.833 0-.214-.131-.849-.393-1.894l-1.388 1.501zm6.298.39l.035.238c-.842.843-1.566 1.266-2.164 1.266-.652 0-.977-.328-.977-.98 0-.599.286-1.239.855-1.921.592-.699 1.176-1.048 1.75-1.048.432 0 .647.212.647.638 0 .39-.215.791-.647 1.205-.458.456-1.089.837-1.891 1.147v.068c0 .367.191.551.567.551.425 0 1.033-.387 1.825-1.164zm-2.392.306c.653-.291 1.177-.643 1.567-1.053.348-.378.524-.736.524-1.072 0-.25-.119-.376-.357-.376-.298 0-.605.215-.92.646-.349.465-.62 1.081-.814 1.855zm3.782 1.108h-.533l.75-3.614.679-.209-.521 2.662c.852-1.774 1.498-2.662 1.933-2.662.262 0 .393.197.393.587 0 .086-.033.33-.096.732l-.616.447c.068-.536.104-.855.104-.959 0-.17-.041-.253-.122-.253-.256 0-.914 1.09-1.971 3.269zm4.005-3.713l.747-.199c-.506 1.697-.762 2.772-.762 3.219 0 .318.113.479.343.479.226 0 .538-.292.938-.872.455-.682.872-1.57 1.25-2.666l.613-.035c-.533 1.223-1.098 2.191-1.691 2.906-.518.634-.947.952-1.292.952-.464 0-.697-.324-.697-.976 0-.646.185-1.581.551-2.808zm5.02-2.063c0-.295.143-.441.432-.441.259 0 .39.137.39.408 0 .301-.149.45-.45.45-.247 0-.372-.141-.372-.417zm-.673 2.03l.822-.166c-.611 1.751-.917 2.811-.917 3.177 0 .146.086.217.253.217.152 0 .521-.322 1.108-.964l.122.175c-.807.92-1.397 1.378-1.763 1.378-.289 0-.435-.193-.435-.583 0-.158.084-.53.253-1.117.245-.884.432-1.589.557-2.117zm4.964 2.403v.235c-.876.775-1.593 1.162-2.144 1.162a.985.985 0 01-.738-.292c-.188-.196-.283-.45-.283-.765 0-.593.313-1.239.932-1.93.577-.64 1.241-.961 1.998-.961.455 0 .681.098.681.297 0 .12-.053.239-.158.361-.482-.247-.833-.373-1.053-.373-.298 0-.578.164-.84.489-.539.655-.81 1.328-.81 2.012 0 .489.238.733.715.733.437 0 1.003-.322 1.7-.968zm3.957-.071l.036.238c-.843.843-1.567 1.266-2.165 1.266-.652 0-.977-.328-.977-.98 0-.599.286-1.239.855-1.921.592-.699 1.176-1.048 1.751-1.048.431 0 .646.212.646.638 0 .39-.215.791-.646 1.205-.459.456-1.09.837-1.891 1.147v.068c0 .367.19.551.566.551.425 0 1.033-.387 1.825-1.164zm-2.391.306c.652-.291 1.176-.643 1.566-1.053.348-.378.524-.736.524-1.072 0-.25-.119-.376-.357-.376-.298 0-.605.215-.92.646-.349.465-.62 1.081-.813 1.855zm8.396-2.804c.641-.694 1.266-1.674 1.876-2.942a19.42 19.42 0 001.206-3.103c.221-.768.331-1.325.331-1.676 0-.307-.069-.462-.209-.462-.53 0-1.599 2.728-3.204 8.183zm-1.655 1.846c.423-.372.667-.652.732-.84.149-.586.608-2.123 1.367-4.612.495-1.525 1.01-2.745 1.546-3.659.488-.837.893-1.257 1.211-1.257.331 0 .498.256.498.768 0 .989-.358 2.314-1.072 3.978-.757 1.769-1.68 3.204-2.767 4.309l-.303 1.039c.39-.036.941-.289 1.655-.765l.063.208c-.319.301-.923.596-1.807.878-.703 2.463-1.317 4.404-1.84 5.821l-.951.307c.56-1.292 1.263-3.32 2.112-6.08l-.444-.095zm5.356-1.65c-.348 0-.717.28-1.107.837-.453.658-.679 1.343-.679 2.057 0 .489.22.733.661.733.42 0 .822-.322 1.206-.965.387-.64.581-1.301.581-1.983 0-.453-.221-.679-.662-.679zm-2.393 2.472c0-.709.244-1.335.735-1.876.491-.539 1.042-.81 1.653-.81.836 0 1.256.465 1.256 1.396a2.68 2.68 0 01-.721 1.864c-.479.531-1.06.795-1.747.795-.343 0-.626-.125-.846-.375-.22-.25-.33-.58-.33-.994zm4.799 1.244h-.533l.751-3.614.678-.209-.52 2.662c.851-1.774 1.497-2.662 1.932-2.662.262 0 .393.197.393.587 0 .086-.032.33-.095.732l-.617.447c.069-.536.105-.855.105-.959 0-.17-.042-.253-.122-.253-.257 0-.915 1.09-1.972 3.269zm7.245-3.755l.714-.121c-.56 1.741-.839 2.792-.839 3.162 0 .27.089.407.271.407.536 0 1.375-1.175 2.525-3.534h.637l-.926 3.362.872-.864.167.164-1.105 1.057c-.753 2.844-1.572 4.267-2.456 4.267-.372 0-.557-.191-.557-.566 0-.768.735-1.831 2.203-3.186l.893-3.236c-1.024 1.908-1.845 2.861-2.468 2.861-.419 0-.628-.256-.628-.768 0-.378.232-1.379.697-3.005zm1.45 4.505c-1.254 1.162-1.879 2.07-1.879 2.728 0 .301.095.453.286.453.566 0 1.096-1.061 1.593-3.181zm5.16-4.466c-.348 0-.718.28-1.108.837-.452.658-.679 1.343-.679 2.057 0 .489.221.733.662.733.419 0 .821-.322 1.205-.965.387-.64.581-1.301.581-1.983 0-.453-.22-.679-.661-.679zm-2.394 2.472c0-.709.244-1.335.735-1.876.492-.539 1.043-.81 1.653-.81.837 0 1.256.465 1.256 1.396 0 .715-.241 1.337-.72 1.864-.48.531-1.06.795-1.748.795a1.08 1.08 0 01-.846-.375c-.22-.25-.33-.58-.33-.994zm5.223-2.487l.67-.199c-.548 1.929-.822 3.061-.822 3.4 0 .128.083.191.253.191.452 0 1.268-1.15 2.444-3.448l.769-.036c-.56 1.867-.84 2.903-.84 3.106 0 .169.089.253.271.253.176 0 .533-.298 1.075-.896l.122.217c-.7.786-1.233 1.179-1.605 1.179-.36 0-.542-.203-.542-.61 0-.343.196-1.159.592-2.445-.598 1.084-1.075 1.849-1.429 2.296-.408.506-.777.759-1.107.759-.432 0-.646-.25-.646-.75 0-.325.265-1.331.795-3.017zm4.829 3.731h-.533l.75-3.614.679-.209-.521 2.662c.852-1.774 1.498-2.662 1.932-2.662.263 0 .394.197.394.587 0 .086-.033.33-.096.732l-.616.447c.069-.536.104-.855.104-.959 0-.17-.041-.253-.122-.253-.256 0-.914 1.09-1.971 3.269zm9.424-11.008l.837-.175-2.746 8.697c.712-.962 1.355-1.444 1.924-1.444.61 0 .914.351.914 1.054 0 .756-.369 1.441-1.107 2.058-.686.568-1.382.854-2.091.854-.464 0-.697-.214-.697-.646 0-.167.209-.965.628-2.391l2.338-8.007zm-.191 7.417c-.366 0-.789.295-1.268.882-.646.798-.971 1.497-.971 2.102 0 .274.143.411.426.411.381 0 .819-.268 1.31-.804.64-.691.962-1.358.962-1.998 0-.396-.152-.593-.459-.593zm2.698-.14l.67-.199c-.548 1.929-.822 3.061-.822 3.4 0 .128.084.191.253.191.453 0 1.269-1.15 2.445-3.448l.768-.036c-.56 1.867-.839 2.903-.839 3.106 0 .169.089.253.27.253.176 0 .533-.298 1.075-.896l.122.217c-.699.786-1.232 1.179-1.605 1.179-.36 0-.541-.203-.541-.61 0-.343.196-1.159.592-2.445-.598 1.084-1.075 1.849-1.429 2.296-.408.506-.777.759-1.108.759-.431 0-.646-.25-.646-.75 0-.325.265-1.331.795-3.017zm4.55 1.927l-.129-.125 1.534-1.668c.092-.64.331-.958.715-.958.205 0 .306.095.306.288 0 .111-.107.26-.321.45-.215.188-.322.301-.322.337l.304.646c.202.429.304.833.304 1.211 0 .465-.179.861-.536 1.189a1.875 1.875 0 01-1.305.488c-.312 0-.577-.06-.789-.179-.211-.119-.318-.25-.318-.39 0-.191.095-.289.289-.289.134 0 .327.092.58.277.25.185.45.277.596.277.244 0 .452-.11.619-.328.17-.217.253-.497.253-.833 0-.214-.131-.849-.393-1.894l-1.387 1.501zm4.924-3.972c0-.295.144-.441.432-.441.259 0 .39.137.39.408 0 .301-.148.45-.449.45-.247 0-.373-.141-.373-.417zm-.672 2.03l.821-.166c-.61 1.751-.917 2.811-.917 3.177 0 .146.086.217.253.217.152 0 .521-.322 1.108-.964l.122.175c-.807.92-1.397 1.378-1.763 1.378-.288 0-.434-.193-.434-.583 0-.158.083-.53.253-1.117.244-.884.431-1.589.557-2.117zm2.337 3.782h-.593c.465-1.429.807-2.644 1.022-3.645l.819-.339c-.012.068-.313 1.09-.908 3.058 1.205-2.004 2.087-3.004 2.647-3.004.39 0 .583.223.583.673 0 .309-.128.768-.384 1.375-.256.608-.384 1.021-.384 1.236 0 .17.083.253.253.253.226 0 .619-.34 1.176-1.021l.131.184c-.732.855-1.283 1.284-1.65 1.284-.387 0-.583-.194-.583-.584 0-.11.149-.554.444-1.328.306-.801.461-1.289.461-1.465 0-.214-.101-.322-.303-.322-.176 0-.495.301-.96.9-.53.679-1.119 1.593-1.771 2.745zm7.855-1.45l.036.238c-.843.843-1.567 1.266-2.165 1.266-.652 0-.977-.328-.977-.98 0-.599.286-1.239.855-1.921.592-.699 1.176-1.048 1.751-1.048.431 0 .646.212.646.638 0 .39-.215.791-.646 1.205-.459.456-1.09.837-1.891 1.147v.068c0 .367.19.551.566.551.425 0 1.033-.387 1.825-1.164zm-2.391.306c.652-.291 1.176-.643 1.566-1.053.348-.378.524-.736.524-1.072 0-.25-.119-.376-.357-.376-.298 0-.605.215-.92.646-.349.465-.62 1.081-.813 1.855zm3.501-.696l-.128-.125 1.533-1.668c.093-.64.331-.958.715-.958.206 0 .307.095.307.288 0 .111-.107.26-.322.45-.214.188-.321.301-.321.337l.304.646c.202.429.303.833.303 1.211 0 .465-.178.861-.536 1.189a1.873 1.873 0 01-1.304.488c-.312 0-.578-.06-.789-.179-.211-.119-.319-.25-.319-.39 0-.191.096-.289.289-.289.134 0 .328.092.581.277.25.185.449.277.595.277.245 0 .453-.11.62-.328.17-.217.253-.497.253-.833 0-.214-.131-.849-.393-1.894l-1.388 1.501zm3.517 0l-.128-.125 1.533-1.668c.092-.64.331-.958.715-.958.205 0 .306.095.306.288 0 .111-.107.26-.321.45-.215.188-.322.301-.322.337 0 0 .102.214.304.646.202.429.303.833.303 1.211 0 .465-.178.861-.535 1.189a1.875 1.875 0 01-1.305.488c-.312 0-.577-.06-.789-.179-.211-.119-.318-.25-.318-.39 0-.191.095-.289.289-.289.134 0 .327.092.581.277.25.185.449.277.595.277.244 0 .452-.11.619-.328.17-.217.253-.497.253-.833 0-.214-.131-.849-.393-1.894l-1.387 1.501zm-141.434-1.007H3.369v1.933h146.049v-1.933z" fill="#fff"/><path d="M149.418 192.664H3.369v1.933h146.049v-1.933z" fill="#fff"/></svg>