<svg xmlns="http://www.w3.org/2000/svg" width="561" height="561" fill="none"><path d="M466.672 0H93.332A93.329 93.329 0 000 93.332v373.34a93.329 93.329 0 0093.332 93.332h373.34a93.329 93.329 0 0093.332-93.332V93.332A93.329 93.329 0 00466.672 0zm46.668 466.67h-.004a46.651 46.651 0 01-13.668 32.996 46.651 46.651 0 01-32.996 13.668H93.332a46.651 46.651 0 01-32.996-13.668 46.652 46.652 0 01-13.668-32.996V93.33a46.652 46.652 0 0113.668-32.996 46.652 46.652 0 0132.996-13.668h373.34a46.652 46.652 0 0132.996 13.668 46.651 46.651 0 0113.668 32.996l.004 373.34z" fill="#000"/><path d="M280.002 140a140.013 140.013 0 00-98.996 41.004A140.013 140.013 0 00140.002 280c0 37.129 14.75 72.738 41.004 98.996A140.013 140.013 0 00280.002 420c37.129 0 72.738-14.75 98.996-41.004A140.013 140.013 0 00420.002 280c0-37.129-14.75-72.738-41.004-98.996A140.013 140.013 0 00280.002 140zm0 233.33a93.329 93.329 0 01-93.332-93.332 93.329 93.329 0 0193.332-93.332 93.329 93.329 0 0193.332 93.332 93.329 93.329 0 01-93.332 93.332zm186.67-245c0 19.332-15.672 35-35 35-19.332 0-35-15.668-35-35 0-19.328 15.668-35 35-35 19.328 0 35 15.672 35 35z" fill="#000"/></svg>